<?xml version="1.0" encoding="UTF-8" standalone="no"?>
<svg
   xmlns:dc="http://purl.org/dc/elements/1.1/"
   xmlns:cc="http://creativecommons.org/ns#"
   xmlns:rdf="http://www.w3.org/1999/02/22-rdf-syntax-ns#"
   xmlns:svg="http://www.w3.org/2000/svg"
   xmlns="http://www.w3.org/2000/svg"
   xmlns:sodipodi="http://sodipodi.sourceforge.net/DTD/sodipodi-0.dtd"
   xmlns:inkscape="http://www.inkscape.org/namespaces/inkscape"
   inkscape:version="1.0 (4035a4fb49, 2020-05-01)"
   sodipodi:docname="miles-dutch-white100x206.svg"
   viewBox="0 0 100 204.73598"
   height="204.73598"
   width="100"
   id="svg2"
   version="1.1">
  <metadata
     id="metadata8">
    <rdf:RDF>
      <cc:Work
         rdf:about="">
        <dc:format>image/svg+xml</dc:format>
        <dc:type
           rdf:resource="http://purl.org/dc/dcmitype/StillImage" />
        <dc:title></dc:title>
      </cc:Work>
    </rdf:RDF>
  </metadata>
  <defs
     id="defs6" />
  <sodipodi:namedview
     inkscape:current-layer="g10"
     inkscape:window-maximized="1"
     inkscape:window-y="0"
     inkscape:window-x="0"
     inkscape:cy="232.89806"
     inkscape:cx="-55.646123"
     inkscape:zoom="0.91826923"
     fit-margin-bottom="0"
     fit-margin-right="0"
     fit-margin-left="0"
     fit-margin-top="0"
     showgrid="false"
     id="namedview4"
     inkscape:window-height="788"
     inkscape:window-width="1280"
     inkscape:pageshadow="2"
     inkscape:pageopacity="0"
     guidetolerance="10"
     gridtolerance="10"
     objecttolerance="10"
     borderopacity="1"
     bordercolor="#666666"
     pagecolor="#ffffff" />
  <g
     transform="translate(-162.91314,-3.8405307)"
     id="g10"
     inkscape:label="Image"
     inkscape:groupmode="layer">
    <g
       transform="matrix(0.33386417,0,0,0.33386417,108.52228,2.5583151)"
       style="display:inline"
       id="g14">
      <path
         id="path16"
         d="m 218,615.22359 c -2.93333,-1.05702 -6.23333,-2.30144 -7.33333,-2.7654 -1.1,-0.46395 -6.32554,-0.70492 -11.61231,-0.53548 -9.37696,0.3005 -9.63388,0.22208 -10.49368,-3.20362 -0.48475,-1.93141 -0.43556,-6.03333 0.10933,-9.11537 0.54487,-3.08205 1.1809,-15.20372 1.41339,-26.93705 0.23251,-11.73334 1.05836,-27.93334 1.83523,-36 0.77688,-8.06667 1.4301,-23.96667 1.45161,-35.33334 0.0321,-16.99153 0.59665,-23.0008 3.17444,-33.79237 1.72443,-7.21913 4.13513,-14.11913 5.35713,-15.33333 2.07194,-2.05872 2.16118,-1.82542 1.32294,3.45904 -1.16166,7.32326 1.10052,7.46249 3.98821,0.24544 2.32599,-5.81322 1.89127,-8.25214 -1.25564,-7.04456 -4.18393,1.60553 -1.74111,-6.65564 6.86623,-23.22023 12.22,-23.51708 13.72246,-31.01184 13.79058,-68.79189 l 0.0525,-29.14456 -5.86347,-5.52211 c -3.22489,-3.03715 -6.55465,-6.88824 -7.39944,-8.55797 -1.95479,-3.86364 -9.36697,-35.81735 -9.38795,-40.47115 -0.0208,-4.59735 -18.83358,-66.74304 -22.55065,-74.49297 -1.58277,-3.3 -5.35373,-10.8 -8.37993,-16.66667 -5.55644,-10.77187 -8.66242,-21.79981 -9.98595,-35.45581 -0.55721,-5.74926 0.0735,-10.06598 2.75572,-18.85948 1.91308,-6.27203 3.47833,-12.29331 3.47833,-13.38064 0,-1.08733 0.94442,-6.15896 2.09871,-11.2703 1.66635,-7.378841 3.33188,-10.777307 8.08485,-16.496882 3.2924,-3.961955 7.13446,-9.403139 8.53792,-12.09152 2.36182,-4.524152 2.40619,-5.367697 0.59623,-11.333333 -4.08235,-13.455427 -1.61539,-34.746462 5.29427,-45.69206 4.92189,-7.7967889 17.99154,-13.7526107 29.79074,-13.5755995 11.5582,0.173396 12.63944,0.5802989 23.93062,9.0057875 9.14328,6.822732 10.27002,8.217246 9.77741,12.100965 -0.1128,0.889788 1.42847,4.789788 3.42516,8.666667 4.78873,9.297998 5.08447,22.512906 0.72101,32.218362 -1.60797,3.576554 -2.92358,8.491144 -2.92358,10.921311 0,2.430168 -0.6,4.789307 -1.33334,5.242532 -3.91706,2.420877 -0.63421,4.093029 18.3463,9.344864 l 13.67962,3.785101 11.51034,-7.818656 11.51032,-7.818656 5.0742,2.92034 c 5.94036,3.418832 11.04705,3.689074 17.64186,0.933587 2.61523,-1.092713 5.62939,-1.651209 6.69811,-1.2411 2.90547,1.114931 3.67485,5.982455 1.55347,9.827901 -1.03159,1.869974 -2.4978,4.765328 -3.25824,6.43412 -1.87603,4.116959 -4.70626,4.952149 -8.28563,2.445069 -2.73013,-1.912269 -3.20229,-1.896801 -5.49723,0.18008 -2.38096,2.15475 -2.63414,2.1082 -4.90456,-0.90176 -1.53776,-2.038659 -3.17034,-2.87589 -4.56461,-2.340858 -5.33156,2.045911 -1.34447,4.505788 16.16619,9.973888 10.08142,3.14816 25.52986,8.05975 34.32986,10.91465 34.04662,11.04542 43.31304,13.36369 53.17339,13.30291 11.75232,-0.0725 16.46249,-1.71613 27.97304,-9.7616 14.47795,-10.11956 18.56007,-6.34634 8.11719,7.50294 -3.44931,4.57445 -8.92563,13.71718 -12.1696,20.31718 -3.24399,6.6 -6.34166,12.44444 -6.88372,12.98764 -0.54207,0.5432 -2.36836,0.0191 -4.05843,-1.16468 -2.51363,-1.76061 -2.91356,-2.91096 -2.19752,-6.32097 0.48143,-2.29276 0.98865,-5.96866 1.12716,-8.16866 0.23487,-3.7305 -0.0625,-4 -4.41484,-4 -3.97872,0 -4.62327,0.42295 -4.37225,2.86904 0.16192,1.57798 -0.62743,3.6341 -1.75411,4.56916 -1.67808,1.39268 -2.72847,1.29847 -5.80859,-0.52101 -2.06804,-1.22161 -8.738,-4.35176 -14.82213,-6.95588 l -11.06205,-4.73476 -2.7025,2.70248 -2.70248,2.70249 -3.38794,-3.22696 c -2.05671,-1.95897 -5.53506,-3.46969 -8.85223,-3.84473 -6.70067,-0.75756 -11.20239,-3.40763 -11.20239,-6.59461 0,-2.44994 -8.80292,-7.05275 -16.40412,-8.57727 -3.48834,-0.69963 -3.67852,-0.51478 -2.85325,2.77333 0.48631,1.9376 0.50116,5.56468 0.0331,8.06018 -1.1327,6.03777 -9.47232,10.62382 -15.3113,8.41985 -2.91676,-1.10095 -5.20184,-0.90593 -10.27433,0.87685 -3.58784,1.26099 -7.56264,2.62744 -8.83291,3.03658 -1.65129,0.53184 -2.71049,-0.31066 -3.71621,-2.9559 -1.08603,-2.85646 -1.76761,-3.33877 -2.99037,-2.11601 -1.22276,1.22276 -1.19402,2.20777 0.12613,4.3216 1.06585,1.70669 1.25168,3.32624 0.4934,4.30005 -2.28616,2.936 -4.6768,10.88976 -5.47372,18.21132 -0.77565,7.12632 -0.91715,7.33576 -5.46295,8.08647 -5.97826,0.98727 -10.24524,3.31892 -11.96944,6.54064 -1.98426,3.70761 -1.69438,4.99299 1.30278,5.77676 1.53016,0.40015 2.66666,1.81868 2.66666,3.32841 0,1.4471 2.75144,6.15326 6.11431,10.45816 7.43296,9.51514 10.62919,15.53816 13.1534,24.78643 1.05692,3.87237 3.45405,11.44815 5.32697,16.83505 1.87294,5.38691 3.40532,12.45619 3.40532,15.7095 0,3.2533 0.78438,7.84582 1.74306,10.20561 2.54122,6.25521 2.72621,34.10793 0.28856,43.44724 -4.76551,18.25792 -14.05892,44.40815 -17.6687,49.717 -2.16641,3.18612 -5.49713,9.23421 -7.40161,13.44021 -1.90448,4.20602 -4.88881,9.60602 -6.63183,12 -1.74302,2.394 -4.58856,8.85272 -6.32341,14.35272 -4.53011,14.36186 -8.83461,23.59464 -13.92073,29.85876 -2.44478,3.01102 -4.87966,7.50591 -5.41083,9.98864 -0.97388,4.55191 -5.06432,16.74546 -12.532,37.35764 -2.23275,6.16278 -5.46071,13.36278 -7.17325,16 -4.33483,6.67538 -7.26368,15.18676 -8.99102,26.1283 -0.8104,5.13333 -2.41096,11.5452 -3.5568,14.24858 -1.32808,3.13336 -1.77434,6.56236 -1.231,9.45864 0.46879,2.49887 1.13063,7.29354 1.47074,10.65482 1.0769,10.64264 4.21066,14.43565 15.09358,18.2688 9.96522,3.50992 14.40667,6.84428 15.14403,11.36916 0.40448,2.48216 -0.48799,2.71278 -12.89879,3.33333 -12.49826,0.62491 -13.52501,0.47877 -16.39393,-2.33333 -3.46577,-3.39714 -7.99529,-3.94108 -9.0888,-1.09148 -1.36493,3.55696 5.18371,10.04201 15.07652,14.93014 5.35675,2.64683 9.73955,5.52623 9.73955,6.3987 0,2.41914 -2.82823,5.38632 -8.15738,8.55813 -5.56072,3.30963 -6.6108,3.36739 -13.84262,0.76143 z m -5.44239,-8.03291 c 3.37971,-1.29691 2.43428,-4.17516 -1.55761,-4.74203 -7.70339,-1.09388 -10.88464,1.24674 -5.33333,3.92403 3.67377,1.77179 4.23257,1.83812 6.89094,0.818 z m 7.18856,-34.85735 C 219.49903,571.05 218.41325,570 217.33333,570 c -1.07992,0 -2.16569,1.05 -2.41284,2.33333 -0.31528,1.63714 0.40464,2.33334 2.41284,2.33334 2.0082,0 2.72812,-0.6962 2.41284,-2.33334 z m 12.00906,-168.67806 c 0.48729,-4.22188 -1.6871,-4.85295 -3.70832,-1.07626 -2.03196,3.79676 -1.68607,5.67452 0.95309,5.17402 1.40731,-0.26688 2.50077,-1.89316 2.75523,-4.09776 z m 73.5781,-145.78708 c 0,-4.39444 -5.07177,-14.18722 -6.79585,-13.12168 -1.52315,0.94136 -0.54715,6.8683 2.25316,13.68278 2.01309,4.89882 4.54269,4.58638 4.54269,-0.5611 z m -6.97222,-16.78486 c -0.8241,-2.47229 -3.69444,-2.88234 -3.69444,-0.52777 0,1.16111 0.95,2.11111 2.1111,2.11111 1.16112,0 1.87362,-0.71251 1.58334,-1.58334 z m -39.69444,-87.03642 c 0,-2.80348 -3.17124,-6.04691 -5.91235,-6.04691 -1.22916,0 -0.86065,3.97663 0.62592,6.75432 1.98325,3.70575 5.28643,3.26372 5.28643,-0.70741 z m 12.49158,-13.2012 C 274.12228,137.09064 275.93788,136 279.22492,136 c 2.33296,0 4.90947,0.66772 5.72557,1.48383 2.30652,2.30652 4.38284,0.12773 4.38284,-4.59918 0,-2.36021 0.99234,-5.70806 2.20519,-7.43965 1.68341,-2.40341 1.86112,-3.6993 0.75103,-5.47684 -1.15556,-1.85034 -0.85544,-2.8893 1.46148,-5.05951 C 299.92385,109.12669 308,108.57456 308,113.93451 c 0,3.57635 3.27955,6.97657 4.62665,4.7969 0.47523,-0.76894 2.97866,-1.39808 5.56315,-1.39808 7.39397,0 4.82547,-2.59734 -7.45657,-7.54028 -13.10179,-5.27286 -23.91458,-8.39058 -51.3999,-14.820483 l -10.66666,-2.495355 -0.41211,6.690132 c -0.56871,9.232546 0.29349,11.763146 6.41921,18.840876 2.92943,3.38468 5.32623,6.98206 5.32623,7.99418 0,3.66903 -2.84317,3.4522 -7.41945,-0.56582 -5.28254,-4.63813 -5.91388,-4.87414 -5.91388,-2.2107 0,1.04091 2.88032,5.09091 6.4007,9 3.52039,3.90911 7.23207,9.70484 8.24816,12.87943 2.06782,6.46038 1.0246,6.91185 9.84272,-4.2596 z m -4.05296,-25.78969 c -5.31724,-2.64949 -6.15216,-5.72532 -2.97309,-10.95288 1.88137,-3.09367 3.46483,-4.10314 6.43617,-4.10314 5.06903,0 6.05336,1.6907 2.73352,4.69512 -2.82086,2.55285 -3.48544,6.62204 -1.30189,7.97155 1.54501,0.95487 1.81808,4.708 0.33333,4.58139 -0.55,-0.0469 -2.90261,-1.03332 -5.22804,-2.19204 z m 151.56138,27.76615 c 0,-0.6478 -1.35,-1.53961 -3,-1.98178 -4.6701,-1.25155 -5.46034,-1.00162 -3.66667,1.15961 1.78869,2.15524 6.66667,2.75681 6.66667,0.82217 z M 334,121.33333 C 333.54677,120.6 332.31136,120 331.25464,120 c -1.05672,0 -1.92131,0.6 -1.92131,1.33333 0,0.73334 1.23542,1.33334 2.74536,1.33334 1.50995,0 2.37454,-0.6 1.92131,-1.33334 z M 310.43109,96.889512 c 0.31239,-1.61072 -0.51374,-2.222845 -3,-2.222845 -3.56449,0 -4.84045,3.214032 -1.76442,4.444444 2.56638,1.026559 4.29038,0.222676 4.76442,-2.221599 z"
         style="display:inline;fill:#ddd6b1;stroke-width:1.33333" />
    </g>
  </g>
</svg>
