<?xml version="1.0" encoding="UTF-8" standalone="no"?>
<svg
   xmlns:dc="http://purl.org/dc/elements/1.1/"
   xmlns:cc="http://creativecommons.org/ns#"
   xmlns:rdf="http://www.w3.org/1999/02/22-rdf-syntax-ns#"
   xmlns:svg="http://www.w3.org/2000/svg"
   xmlns="http://www.w3.org/2000/svg"
   xmlns:sodipodi="http://sodipodi.sourceforge.net/DTD/sodipodi-0.dtd"
   xmlns:inkscape="http://www.inkscape.org/namespaces/inkscape"
   inkscape:version="1.0 (4035a4fb49, 2020-05-01)"
   sodipodi:docname="miles - dutch white - on transparent - 100x206.svg"
   viewBox="0 0 100 206.48926"
   height="206.48926"
   width="100"
   id="svg2"
   version="1.1">
  <metadata
     id="metadata8">
    <rdf:RDF>
      <cc:Work
         rdf:about="">
        <dc:format>image/svg+xml</dc:format>
        <dc:type
           rdf:resource="http://purl.org/dc/dcmitype/StillImage" />
        <dc:title></dc:title>
      </cc:Work>
    </rdf:RDF>
  </metadata>
  <defs
     id="defs6" />
  <sodipodi:namedview
     inkscape:current-layer="g14"
     inkscape:window-maximized="1"
     inkscape:window-y="0"
     inkscape:window-x="0"
     inkscape:cy="227.43043"
     inkscape:cx="41.252371"
     inkscape:zoom="1.3637821"
     fit-margin-bottom="0"
     fit-margin-right="0"
     fit-margin-left="0"
     fit-margin-top="0"
     showgrid="false"
     id="namedview4"
     inkscape:window-height="1013"
     inkscape:window-width="1920"
     inkscape:pageshadow="2"
     inkscape:pageopacity="0"
     guidetolerance="10"
     gridtolerance="10"
     objecttolerance="10"
     borderopacity="1"
     bordercolor="#666666"
     pagecolor="#ffffff" />
  <g
     transform="translate(-191.92272,-84.569572)"
     id="g10"
     inkscape:label="Image"
     inkscape:groupmode="layer">
    <g
       id="g14">
      <path
         id="path16"
         d="m 209.55202,290.34021 -1.92736,-0.68218 1.02156,-0.83885 c 0.82684,-0.67896 0.92639,-0.99533 0.52226,-1.65981 -0.69602,-1.14441 -4.32164,-1.38063 -5.18698,-0.33795 -0.54391,0.65537 -0.48818,0.86387 0.42952,1.60697 l 1.05452,0.8539 h -2.60452 -2.60451 l 0.3141,-2.6042 c 0.17275,-1.43231 0.39218,-5.86511 0.48763,-9.85066 0.0954,-3.98556 0.39005,-9.48835 0.65469,-12.22842 0.26464,-2.74007 0.48134,-8.065 0.48155,-11.83318 3.4e-4,-8.50725 0.88845,-13.33368 2.42422,-13.17627 0.74663,0.0765 1.21309,-0.38395 2.00536,-1.97965 1.06221,-2.13937 0.97193,-3.58193 -0.22417,-3.58193 -1.04702,0 -0.42167,-1.82578 2.55959,-7.47292 2.50088,-4.73721 2.70051,-4.98195 4.06346,-4.98195 1.53109,0 2.28799,-0.76451 2.2992,-2.3223 0.009,-1.24159 -1.01194,-2.08227 -2.04652,-1.68526 -0.69142,0.26532 -0.75582,0.15079 -0.44132,-0.78477 0.44187,-1.31444 0.87221,-21.34061 0.4912,-22.85864 -0.14693,-0.58542 -1.25745,-2.04239 -2.46781,-3.23772 -2.1156,-2.08932 -2.24707,-2.37186 -3.40137,-7.30976 -0.66038,-2.82504 -1.37934,-6.39167 -1.59768,-7.92583 -0.21833,-1.53416 -1.76367,-7.37504 -3.43409,-12.97973 -2.41968,-8.11868 -3.64181,-11.38731 -6.01157,-16.0781 -4.47571,-8.85944 -5.44735,-14.40818 -3.61577,-20.64874 0.61471,-2.09445 1.37701,-5.23474 1.69401,-6.97842 0.67363,-3.70537 0.94548,-4.30198 3.1987,-7.02001 0.92924,-1.12094 2.11378,-2.88551 2.63229,-3.92127 0.90304,-1.80386 0.91239,-1.98511 0.22187,-4.30259 -1.064,-3.570884 -0.65939,-9.854194 0.84633,-13.14311 1.79437,-3.919426 5.17543,-5.807288 10.40052,-5.807288 3.50961,0 4.02363,0.202203 7.72751,3.039785 1.61766,1.239307 2.6042,2.333922 2.6042,2.889497 0,0.491917 0.5477,1.957605 1.21712,3.257085 1.51346,2.937967 1.68686,7.635511 0.38814,10.514971 -0.44941,0.99639 -0.96706,2.62684 -1.15036,3.62323 -0.18329,0.99639 -0.47851,2.15311 -0.65605,2.57049 -0.22481,0.52852 0.0153,0.98036 0.79085,1.48855 1.04625,0.68553 9.87146,3.41388 11.04264,3.41388 0.29596,0 2.22904,-1.13181 4.29574,-2.51513 l 3.75763,-2.51512 1.65464,0.92996 c 1.96271,1.1031 3.76931,1.17868 5.9905,0.2506 1.99988,-0.8356 1.95078,-0.83633 2.28489,0.0343 0.15063,0.39254 -0.25312,1.61295 -0.89722,2.71203 -1.03313,1.7629 -1.27909,1.94052 -2.08779,1.50772 -0.50417,-0.26983 -1.43932,-0.39069 -2.07808,-0.26858 -0.68457,0.13086 -1.43524,-0.0518 -1.82839,-0.44498 -0.37101,-0.37101 -1.0818,-0.55851 -1.6018,-0.42253 -0.52184,0.13647 -1.27583,-0.0641 -1.70675,-0.45413 -0.96595,-0.87417 -2.63336,-0.66058 -3.29135,0.42161 -0.40654,0.66861 -0.29622,0.98745 0.59452,1.7182 0.60152,0.49349 1.39527,0.78152 1.76389,0.64006 0.36861,-0.14145 0.9974,0.0211 1.39729,0.36126 0.3999,0.34014 3.47848,1.4764 6.84129,2.52503 3.36282,1.04862 8.55989,2.69836 11.54906,3.66608 11.27403,3.64987 14.75695,4.53496 17.83539,4.53237 4.0801,-0.004 5.71504,-0.53773 9.71443,-3.17462 4.73383,-3.12114 5.01306,-2.99577 2.05987,0.92481 -1.02693,1.36333 -2.80599,4.36542 -3.95346,6.6713 -2.57013,5.16475 -3.56888,5.28131 -2.53923,0.29634 0.41617,-2.0149 -0.756,-3.07596 -3.05711,-2.76731 -1.08157,0.14507 -2.26127,-0.0243 -3.10654,-0.44596 -1.59989,-0.79813 -2.55819,-0.55415 -2.76497,0.70394 -0.14279,0.86883 -0.26537,0.85256 -3.27128,-0.43417 -2.78555,-1.1924 -3.22765,-1.2682 -4.09233,-0.70164 -0.85414,0.55965 -1.09463,0.53379 -2.02242,-0.21749 -0.57916,-0.46897 -1.3871,-0.85381 -1.79542,-0.8552 -2.00432,-0.007 -4.0548,-0.95829 -4.31706,-2.00321 -0.21,-0.83673 -1.00265,-1.37002 -3.48226,-2.34286 -4.01144,-1.57384 -4.78978,-1.27658 -4.56894,1.74495 0.12231,1.67348 -0.0432,2.22929 -0.90581,3.04216 -0.88906,0.83777 -1.38874,0.95133 -3.1694,0.72029 -1.92464,-0.24972 -3.40518,0.0549 -6.3371,1.30392 -0.52957,0.22559 -0.83969,0.0429 -1.04956,-0.61835 -0.18886,-0.59504 -0.6834,-0.93857 -1.35117,-0.93857 -1.19599,0 -1.72179,0.95459 -1.34741,2.44623 0.14018,0.55853 -0.1656,2.12184 -0.67953,3.47401 -0.51393,1.35217 -0.93452,3.22277 -0.93465,4.15688 -1.8e-4,1.40744 -0.15849,1.69839 -0.92407,1.69839 -1.71475,0 -4.3562,1.70319 -4.98107,3.21177 -0.54469,1.31499 -0.51443,1.51696 0.32964,2.20044 0.51115,0.41391 1.06763,1.18819 1.23662,1.72063 0.16899,0.53243 1.23137,2.15151 2.36084,3.59795 2.52682,3.23593 3.15564,4.41374 3.99123,7.47572 0.36031,1.32035 1.17928,3.90855 1.81993,5.75156 0.64066,1.84301 1.09562,3.42014 1.01102,3.50474 -0.0846,0.0846 -0.7328,-1.05757 -1.44044,-2.53814 -1.40541,-2.94045 -2.28158,-3.5959 -3.36225,-2.51523 -0.54122,0.54122 -0.58816,0.88773 -0.20364,1.50345 0.27483,0.44007 0.65236,1.50676 0.83895,2.37042 0.72292,3.34615 1.62653,4.96709 2.76898,4.96709 0.59569,0 1.09261,-0.25476 1.10426,-0.56614 0.0117,-0.31137 0.37665,0.35101 0.81112,1.47195 0.93862,2.4217 1.25486,11.74358 0.49785,14.67509 -1.49496,5.78918 -4.80752,15.24574 -5.90232,16.84969 -0.69809,1.02276 -1.77682,3.00724 -2.39718,4.40997 -0.62035,1.40273 -1.63722,3.21816 -2.25971,4.03429 -0.6225,0.81613 -1.73489,3.31539 -2.472,5.55392 -1.89483,5.75443 -2.60072,7.25166 -4.62819,9.8166 -0.98281,1.24334 -1.78692,2.55399 -1.78692,2.91255 0,1.69737 -5.47683,16.89243 -6.71574,18.63231 -1.39542,1.9597 -2.68368,5.70305 -3.28848,9.55552 -0.29888,1.90385 -0.83726,4.04586 -1.19639,4.76002 -0.55258,1.09886 -0.56637,1.89953 -0.0897,5.2084 0.80574,5.59326 1.58548,6.9335 4.7351,8.13879 1.40783,0.53875 2.81173,0.97954 3.11979,0.97954 0.57838,0 2.52962,1.85661 2.52962,2.40694 0,0.17076 -1.80268,0.31048 -4.00594,0.31048 -3.43076,0 -4.12365,-0.13006 -4.82569,-0.9058 -0.98259,-1.08576 -2.6112,-1.17379 -3.59089,-0.1941 -0.94704,0.94704 -0.90036,1.44068 0.30733,3.24936 0.67772,1.01497 2.11884,2.06759 4.30259,3.14269 1.80596,0.88909 3.28356,1.79188 3.28356,2.0062 0,0.51198 -3.43971,2.67584 -4.18037,2.62979 -0.31632,-0.0197 -1.44244,-0.34273 -2.5025,-0.71794 z m 1.22998,-12.58524 c 1.07905,-1.30018 -0.40958,-3.29448 -2.00279,-2.68311 -1.64781,0.63232 -1.11102,3.34073 0.66211,3.34073 0.4372,0 1.0405,-0.29593 1.34068,-0.65762 z m 13.06168,-141.6449 c 0.29891,-0.29891 0.54348,-0.91033 0.54348,-1.35871 0,-0.46755 0.33802,-0.82297 0.79259,-0.83339 0.43592,-0.01 1.60337,-1.04533 2.59434,-2.30075 1.83941,-2.3303 2.53153,-2.55556 4.82018,-1.56878 1.03466,0.44611 2.20969,-0.88396 2.20969,-2.50125 0,-0.73827 0.32812,-1.84307 0.72915,-2.45513 0.40104,-0.61205 0.59993,-1.44958 0.44199,-1.86118 -0.37149,-0.96808 0.94961,-2.42897 2.19654,-2.42897 0.66079,0 1.12904,0.44047 1.49283,1.40426 0.52494,1.39073 0.55316,1.40121 2.92994,1.08833 4.95874,-0.65278 4.5502,-2.2342 -1.16105,-4.49431 -4.8942,-1.93676 -9.28154,-3.21744 -17.11336,-4.99542 -4.93711,-1.12082 -5.11368,-1.04247 -5.27559,2.34104 -0.15088,3.15267 0.48408,4.8235 2.78926,7.3397 l 1.42123,1.55134 -1.30656,-0.98521 c -1.49908,-1.13037 -2.91219,-1.27777 -3.27157,-0.34124 -0.32274,0.84104 0.44181,2.22377 2.49734,4.51656 1.5531,1.73236 3.05411,4.35046 2.49421,4.35046 -0.13558,0 -0.66451,-0.2237 -1.17539,-0.49711 -2.05067,-1.09749 -2.86867,2.01017 -1.01661,3.86222 0.85037,0.85037 1.6294,0.90551 2.36736,0.16754 z m 1.9022,-16.80274 c 0,-0.98702 0.74104,-2.12865 1.38171,-2.12865 0.16212,0 0.0715,0.71332 -0.2014,1.58516 -0.56519,1.80574 -1.18031,2.08898 -1.18031,0.54349 z m 23.9171,4.36413 c 0.18424,-1.29336 -1.5269,-1.90283 -2.52897,-0.90076 -0.58898,0.58897 -0.6056,0.82075 -0.10236,1.42712 0.83668,1.00814 2.45895,0.68362 2.63133,-0.52636 z m 27.76761,8.9391 c -0.45499,-0.2812 -0.42865,-0.41902 0.12035,-0.62969 0.38655,-0.14833 0.81457,-0.0889 0.95117,0.13213 0.35707,0.57776 -0.38456,0.92213 -1.07152,0.49756 z"
         style="display:inline;fill:#b9ac70;stroke-width:0.452903" />
    </g>
  </g>
</svg>
